<mxfile host="app.diagrams.net" modified="2024-02-09T16:12:25.806Z" agent="Mozilla/5.0 (Windows NT 10.0; Win64; x64) AppleWebKit/537.36 (KHTML, like Gecko) Chrome/120.0.0.0 Safari/537.36 OPR/106.0.0.0" etag="TADa5wl4SbOv_rwzzysL" version="23.1.1" type="device">
  <diagram name="PÃ¡gina-1" id="KiUcm8TDbXxkTYw3uOXb">
    <mxGraphModel dx="2054" dy="1132" grid="1" gridSize="10" guides="1" tooltips="1" connect="1" arrows="1" fold="1" page="1" pageScale="1" pageWidth="827" pageHeight="1169" math="0" shadow="0">
      <root>
        <mxCell id="0" />
        <mxCell id="1" parent="0" />
        <mxCell id="RT3MP3s6NUer7lmC1RXk-4" value="VPC" style="points=[[0,0],[0.25,0],[0.5,0],[0.75,0],[1,0],[1,0.25],[1,0.5],[1,0.75],[1,1],[0.75,1],[0.5,1],[0.25,1],[0,1],[0,0.75],[0,0.5],[0,0.25]];outlineConnect=0;gradientColor=none;html=1;whiteSpace=wrap;fontSize=12;fontStyle=0;container=1;pointerEvents=0;collapsible=0;recursiveResize=0;shape=mxgraph.aws4.group;grIcon=mxgraph.aws4.group_vpc2;strokeColor=#8C4FFF;fillColor=none;verticalAlign=top;align=left;spacingLeft=30;fontColor=#AAB7B8;dashed=0;" vertex="1" parent="1">
          <mxGeometry x="36.5" y="40" width="723.5" height="460" as="geometry" />
        </mxCell>
        <mxCell id="RT3MP3s6NUer7lmC1RXk-5" value="Availability Zone" style="fillColor=none;strokeColor=#147EBA;dashed=1;verticalAlign=top;fontStyle=0;fontColor=#147EBA;whiteSpace=wrap;html=1;" vertex="1" parent="RT3MP3s6NUer7lmC1RXk-4">
          <mxGeometry x="43.5" y="40" width="636.5" height="340" as="geometry" />
        </mxCell>
        <mxCell id="RT3MP3s6NUer7lmC1RXk-6" value="" style="outlineConnect=0;dashed=0;verticalLabelPosition=bottom;verticalAlign=top;align=center;html=1;shape=mxgraph.aws3.ec2;fillColor=#F58534;gradientColor=none;" vertex="1" parent="RT3MP3s6NUer7lmC1RXk-4">
          <mxGeometry x="113.5" y="150" width="76.5" height="93" as="geometry" />
        </mxCell>
        <mxCell id="RT3MP3s6NUer7lmC1RXk-7" value="" style="outlineConnect=0;dashed=0;verticalLabelPosition=bottom;verticalAlign=top;align=center;html=1;shape=mxgraph.aws3.ec2;fillColor=#F58534;gradientColor=none;" vertex="1" parent="RT3MP3s6NUer7lmC1RXk-4">
          <mxGeometry x="325.5" y="140" width="76.5" height="93" as="geometry" />
        </mxCell>
        <mxCell id="RT3MP3s6NUer7lmC1RXk-8" value="" style="outlineConnect=0;dashed=0;verticalLabelPosition=bottom;verticalAlign=top;align=center;html=1;shape=mxgraph.aws3.ec2;fillColor=#F58534;gradientColor=none;" vertex="1" parent="RT3MP3s6NUer7lmC1RXk-4">
          <mxGeometry x="533.5" y="150" width="76.5" height="93" as="geometry" />
        </mxCell>
        <mxCell id="RT3MP3s6NUer7lmC1RXk-9" value="" style="outlineConnect=0;dashed=0;verticalLabelPosition=bottom;verticalAlign=top;align=center;html=1;shape=mxgraph.aws3.customer_gateway;fillColor=#F58534;gradientColor=none;" vertex="1" parent="RT3MP3s6NUer7lmC1RXk-4">
          <mxGeometry x="329.25" y="430" width="69" height="72" as="geometry" />
        </mxCell>
        <mxCell id="RT3MP3s6NUer7lmC1RXk-10" value="" style="outlineConnect=0;dashed=0;verticalLabelPosition=bottom;verticalAlign=top;align=center;html=1;shape=mxgraph.aws3.route_table;fillColor=#F58536;gradientColor=none;" vertex="1" parent="RT3MP3s6NUer7lmC1RXk-4">
          <mxGeometry x="325.5" y="350" width="75" height="69" as="geometry" />
        </mxCell>
        <mxCell id="RT3MP3s6NUer7lmC1RXk-13" value="" style="endArrow=classic;html=1;rounded=0;" edge="1" parent="RT3MP3s6NUer7lmC1RXk-4" source="RT3MP3s6NUer7lmC1RXk-6" target="RT3MP3s6NUer7lmC1RXk-10">
          <mxGeometry width="50" height="50" relative="1" as="geometry">
            <mxPoint x="163.5" y="320" as="sourcePoint" />
            <mxPoint x="213.5" y="270" as="targetPoint" />
            <Array as="points">
              <mxPoint x="151.5" y="280" />
              <mxPoint x="363.5" y="280" />
            </Array>
          </mxGeometry>
        </mxCell>
        <mxCell id="RT3MP3s6NUer7lmC1RXk-14" value="" style="endArrow=classic;html=1;rounded=0;entryX=0.5;entryY=0;entryDx=0;entryDy=0;entryPerimeter=0;" edge="1" parent="RT3MP3s6NUer7lmC1RXk-4" source="RT3MP3s6NUer7lmC1RXk-8" target="RT3MP3s6NUer7lmC1RXk-10">
          <mxGeometry width="50" height="50" relative="1" as="geometry">
            <mxPoint x="162" y="253" as="sourcePoint" />
            <mxPoint x="373" y="360" as="targetPoint" />
            <Array as="points">
              <mxPoint x="571.5" y="280" />
              <mxPoint x="363.5" y="280" />
            </Array>
          </mxGeometry>
        </mxCell>
        <mxCell id="RT3MP3s6NUer7lmC1RXk-15" value="" style="endArrow=classic;html=1;rounded=0;" edge="1" parent="RT3MP3s6NUer7lmC1RXk-4" source="RT3MP3s6NUer7lmC1RXk-7" target="RT3MP3s6NUer7lmC1RXk-10">
          <mxGeometry width="50" height="50" relative="1" as="geometry">
            <mxPoint x="343.5" y="200" as="sourcePoint" />
            <mxPoint x="393.5" y="150" as="targetPoint" />
            <Array as="points" />
          </mxGeometry>
        </mxCell>
        <mxCell id="RT3MP3s6NUer7lmC1RXk-16" value="EC2 Ubuntu&lt;br&gt;Servidor WEB&lt;br&gt;Apache2 con PHP&lt;br&gt;10.0.0.2" style="text;html=1;align=center;verticalAlign=middle;resizable=0;points=[];autosize=1;strokeColor=none;fillColor=none;" vertex="1" parent="RT3MP3s6NUer7lmC1RXk-4">
          <mxGeometry x="91.75" y="80" width="120" height="70" as="geometry" />
        </mxCell>
        <mxCell id="RT3MP3s6NUer7lmC1RXk-17" value="EC2 Ubuntu&lt;br&gt;Servidor DB&lt;br&gt;MySQL&lt;br&gt;10.0.0.3" style="text;html=1;align=center;verticalAlign=middle;resizable=0;points=[];autosize=1;strokeColor=none;fillColor=none;" vertex="1" parent="RT3MP3s6NUer7lmC1RXk-4">
          <mxGeometry x="526.75" y="80" width="90" height="70" as="geometry" />
        </mxCell>
        <mxCell id="RT3MP3s6NUer7lmC1RXk-18" value="EC2 Windows&lt;br&gt;Windows Server&lt;br&gt;Icinga&lt;br&gt;10.0.0.1" style="text;html=1;align=center;verticalAlign=middle;resizable=0;points=[];autosize=1;strokeColor=none;fillColor=none;" vertex="1" parent="RT3MP3s6NUer7lmC1RXk-4">
          <mxGeometry x="308" y="70" width="110" height="70" as="geometry" />
        </mxCell>
        <mxCell id="RT3MP3s6NUer7lmC1RXk-19" value="" style="endArrow=classic;html=1;rounded=0;" edge="1" parent="RT3MP3s6NUer7lmC1RXk-4" source="RT3MP3s6NUer7lmC1RXk-10" target="RT3MP3s6NUer7lmC1RXk-9">
          <mxGeometry width="50" height="50" relative="1" as="geometry">
            <mxPoint x="353.5" y="420" as="sourcePoint" />
            <mxPoint x="403.5" y="370" as="targetPoint" />
          </mxGeometry>
        </mxCell>
        <mxCell id="RT3MP3s6NUer7lmC1RXk-11" value="" style="outlineConnect=0;dashed=0;verticalLabelPosition=bottom;verticalAlign=top;align=center;html=1;shape=mxgraph.aws3.internet;fillColor=#D2D3D3;gradientColor=none;" vertex="1" parent="1">
          <mxGeometry x="358" y="585" width="79.5" height="79.5" as="geometry" />
        </mxCell>
        <mxCell id="RT3MP3s6NUer7lmC1RXk-20" value="" style="endArrow=classic;html=1;rounded=0;" edge="1" parent="1" source="RT3MP3s6NUer7lmC1RXk-9" target="RT3MP3s6NUer7lmC1RXk-11">
          <mxGeometry width="50" height="50" relative="1" as="geometry">
            <mxPoint x="250" y="730" as="sourcePoint" />
            <mxPoint x="300" y="680" as="targetPoint" />
          </mxGeometry>
        </mxCell>
      </root>
    </mxGraphModel>
  </diagram>
</mxfile>
